<?xml version="1.0" standalone="no"?>
<!DOCTYPE svg PUBLIC "-//W3C//DTD SVG 20010904//EN"
 "http://www.w3.org/TR/2001/REC-SVG-20010904/DTD/svg10.dtd">
<svg version="1.0" xmlns="http://www.w3.org/2000/svg"
 width="900.000000pt" height="900.000000pt" viewBox="0 0 900.000000 900.000000"
 preserveAspectRatio="xMidYMid meet">

<g transform="translate(0.000000,900.000000) scale(0.100000,-0.100000)"
fill="#000000" stroke="none">
<path d="M0 4500 l0 -4500 4500 0 4500 0 0 4500 0 4500 -4500 0 -4500 0 0
-4500z m4935 1340 c482 -20 1007 -88 1435 -186 1158 -263 1829 -747 1735
-1250 -50 -268 -287 -507 -715 -720 -563 -280 -1393 -470 -2305 -526 -246 -15
-916 -15 -1164 0 -1285 79 -2373 419 -2811 878 -89 94 -129 150 -169 241 -114
261 -19 538 266 775 201 168 528 336 888 456 773 257 1788 376 2840 332z"/>
<path d="M4070 5734 c-30 -3 -152 -11 -270 -19 -1239 -87 -2313 -450 -2652
-896 -67 -89 -91 -135 -112 -216 -134 -515 637 -1001 1954 -1232 429 -75 855
-111 1393 -118 409 -5 591 1 967 33 806 69 1571 259 2045 509 229 121 440 297
518 432 202 350 -4 699 -583 987 -523 260 -1256 434 -2110 502 -193 15 -1006
28 -1150 18z m-172 -284 c92 -11 203 -27 247 -35 171 -32 396 -66 540 -82 284
-32 687 -17 878 33 86 22 121 -7 97 -80 -23 -69 -132 -145 -285 -197 -65 -22
-84 -24 -275 -23 -216 0 -272 9 -545 83 -38 11 -131 36 -205 56 -74 19 -143
38 -152 41 -13 4 -18 0 -18 -13 0 -11 -35 -46 -93 -91 -115 -89 -243 -216
-302 -301 -25 -36 -45 -68 -45 -72 0 -7 66 -5 208 7 l62 6 0 41 c0 51 28 113
66 149 110 102 251 27 214 -112 -13 -50 -82 -125 -125 -136 -34 -8 -32 -17 15
-48 22 -14 40 -30 40 -35 0 -16 -30 -41 -49 -41 -19 0 -87 45 -110 73 -17 22
-55 22 -248 0 l-153 -16 -66 -111 c-389 -645 -636 -866 -969 -869 -292 -2
-480 214 -430 495 24 141 118 270 247 338 96 52 202 52 208 0 5 -38 -3 -51
-42 -71 -55 -28 -145 -114 -170 -163 -57 -111 -19 -243 85 -298 34 -18 58 -23
122 -22 169 1 321 101 539 354 99 115 239 301 232 308 -13 13 -119 -15 -184
-49 -86 -45 -107 -48 -123 -18 -15 29 12 66 77 101 49 26 207 71 296 84 46 6
50 9 110 93 35 47 89 116 120 153 71 82 231 217 303 255 30 15 55 31 55 34 0
8 -76 24 -264 54 -372 61 -645 17 -804 -129 -80 -73 -112 -173 -82 -247 27
-64 131 -79 223 -33 67 34 139 94 179 150 33 46 57 55 78 29 19 -23 5 -72 -46
-159 -61 -104 -151 -193 -240 -237 -57 -28 -83 -34 -148 -37 -92 -5 -137 6
-194 47 -147 107 -138 345 20 516 123 133 340 222 603 249 80 8 339 -4 503
-24z m2940 -523 c-2 -7 -55 -92 -118 -190 -63 -98 -136 -210 -162 -250 -141
-218 -344 -548 -361 -586 -27 -61 -13 -91 42 -91 55 0 129 53 284 201 l128
122 29 -28 c17 -16 30 -34 30 -40 0 -16 -145 -176 -222 -244 -115 -102 -194
-149 -286 -171 -111 -26 -197 16 -221 108 -7 23 -14 42 -17 42 -3 0 -26 -18
-52 -40 -25 -22 -73 -54 -108 -71 -51 -25 -75 -31 -131 -31 -81 0 -109 10
-161 57 -57 51 -85 122 -85 217 0 43 -2 78 -5 78 -2 0 -34 -14 -70 -32 -82
-41 -173 -49 -233 -23 -42 19 -99 93 -99 129 0 12 -4 27 -9 34 -8 13 -24 -10
-238 -345 l-66 -103 -108 0 c-84 0 -109 3 -109 13 0 14 26 58 181 305 143 227
191 317 187 354 -2 27 -8 34 -30 36 -78 9 -237 -142 -440 -418 -112 -153 -197
-227 -315 -276 -44 -18 -77 -24 -139 -24 -70 0 -89 4 -142 31 -66 33 -111 80
-137 147 -10 23 -19 42 -22 42 -3 0 -34 -27 -70 -60 -36 -33 -74 -60 -84 -60
-16 0 -69 57 -69 75 0 4 35 42 78 84 42 42 84 92 94 111 9 19 30 66 48 105 64
142 165 262 271 323 103 59 250 97 286 74 12 -8 47 -82 41 -87 -2 -1 -41 -21
-87 -43 -138 -69 -225 -156 -271 -272 -68 -170 21 -308 170 -264 106 31 200
137 239 269 20 66 22 91 18 174 -4 53 -9 110 -13 128 -6 30 -3 34 42 62 57 35
75 38 97 13 21 -24 54 -116 62 -174 l6 -48 86 90 c47 49 106 105 132 124 63
47 165 81 212 72 71 -13 119 -74 119 -151 0 -19 1 -35 3 -35 2 0 30 26 62 58
73 71 122 95 200 99 72 5 118 -15 153 -67 20 -29 23 -45 20 -92 -8 -118 -115
-191 -209 -142 -35 17 -63 75 -53 106 11 36 -19 15 -49 -34 -22 -36 -29 -59
-29 -102 -1 -69 19 -101 70 -117 78 -23 166 24 352 190 205 181 313 241 438
241 111 0 197 -53 217 -133 4 -15 11 -25 16 -22 7 5 212 312 324 487 l50 78
118 0 c91 0 118 -3 115 -13z"/>
<path d="M4132 4912 c-24 -33 -37 -76 -28 -97 5 -14 9 -14 35 -1 69 36 95 118
40 124 -20 2 -32 -4 -47 -26z"/>
<path d="M5933 4361 c-95 -44 -226 -214 -258 -336 -20 -77 -19 -103 4 -142 36
-58 93 -56 187 6 76 49 113 89 174 185 40 64 47 81 38 96 -9 14 -8 28 5 62 24
61 21 94 -8 123 -30 31 -82 33 -142 6z"/>
</g>
</svg>
